<svg width="20" height="20" viewBox="0 0 20 20" fill="none" xmlns="http://www.w3.org/2000/svg">
<g id="ic_green confirmed">
<circle id="Ellipse 31" cx="10" cy="10" r="10" fill="#42B48B"/>
<path id="Vector" fill-rule="evenodd" clip-rule="evenodd" d="M10 0C4.47679 0 0 4.47679 0 10C0 15.5232 4.47679 20 10 20C15.5232 20 20 15.5232 20 10C20 4.47679 15.5232 0 10 0ZM8.95886 14.4446C8.67663 14.4446 8.39439 14.3379 8.17775 14.1246L5.88675 11.9013C5.44896 11.4702 5.4445 10.7668 5.87671 10.3312C6.30778 9.89233 7.01121 9.89022 7.44674 10.3213C8.28097 11.1217 9.6034 11.1034 10.4152 10.2803L13.6555 6.99467C14.091 6.56135 14.7933 6.55799 15.2277 6.98909C15.6633 7.42352 15.6655 8.1258 15.2333 8.56134L9.74761 14.1167C9.52872 14.3345 9.24332 14.4446 8.95886 14.4446Z" fill="#D9F0E8"/>
</g>
</svg>
