<svg width="24" height="24" viewBox="0 0 24 24" fill="none" xmlns="http://www.w3.org/2000/svg">
 <g xmlns="http://www.w3.org/2000/svg" id="Group">
<path id="Vector" d="M7.6188 19.8633C6.21813 19.083 5.0514 17.9427 4.23934 16.5602C3.42729 15.1777 2.99942 13.6033 3 12C3 7.0293 7.0293 3 12 3C16.9707 3 21 7.0293 21 12C21.0006 13.6033 20.5727 15.1777 19.7607 16.5602C18.9486 17.9427 17.7819 19.083 16.3812 19.8633L15.5748 18.2514C16.9527 17.4632 18.0314 16.2416 18.6433 14.7769C19.2551 13.3121 19.3657 11.6862 18.9579 10.1521C18.5501 8.61795 17.6467 7.2616 16.3883 6.294C15.1299 5.32639 13.587 4.80179 11.9996 4.80179C10.4121 4.80179 8.86923 5.32639 7.61081 6.294C6.35239 7.2616 5.44902 8.61795 5.0412 10.1521C4.63339 11.6862 4.74401 13.3121 5.35584 14.7769C5.96767 16.2416 7.04643 17.4632 8.4243 18.2514L7.6188 19.8633ZM9.2316 16.6377C8.21671 16.0318 7.42863 15.1097 6.98828 14.0128C6.54794 12.9159 6.47965 11.7049 6.79389 10.5654C7.10813 9.42597 7.78754 8.4211 8.72789 7.70499C9.66824 6.98887 10.8176 6.60106 11.9996 6.60106C13.1815 6.60106 14.3309 6.98887 15.2712 7.70499C16.2116 8.4211 16.891 9.42597 17.2052 10.5654C17.5195 11.7049 17.4512 12.9159 17.0108 14.0128C16.5705 15.1097 15.7824 16.0318 14.7675 16.6377L13.9593 15.0204C14.6107 14.5978 15.108 13.9759 15.3771 13.2475C15.6461 12.5191 15.6724 11.7232 15.452 10.9786C15.2316 10.234 14.7764 9.58068 14.1543 9.11601C13.5322 8.65134 12.7765 8.40028 12 8.40028C11.2235 8.40028 10.4678 8.65134 9.8457 9.11601C9.22358 9.58068 8.76838 10.234 8.54801 10.9786C8.32765 11.7232 8.35393 12.5191 8.62295 13.2475C8.89196 13.9759 9.38928 14.5978 10.0407 15.0204L9.2316 16.6377ZM12 15.6L14.7 21H9.3L12 15.6Z" fill="#A6ACB8"/>
</g>
</svg>
