<svg width="20" height="20" viewBox="0 0 20 20" fill="none" xmlns="http://www.w3.org/2000/svg">
<g id="Group 8646">
<path id="Vector" d="M10.4609 6.40599L10.0099 6.08081L9.55897 6.40599C8.65303 7.0609 7.65697 7.58118 6.60183 7.95061L5.57422 8.29796C5.76803 10.1968 6.65185 11.9586 8.05822 13.2496L9.91383 14.8681C9.94121 14.8897 9.97507 14.9014 10.0099 14.9014C10.0448 14.9014 10.0787 14.8897 10.106 14.8681L11.9617 13.2496C13.368 11.9586 14.2518 10.1968 14.4457 8.29796L13.4254 7.95061C12.3677 7.58183 11.3691 7.06153 10.4609 6.40599Z" fill="#A6ACB8"/>
<path id="Vector_2" d="M18.3882 7.99079L17.5419 7.77358C17.4533 7.75071 17.379 7.67926 17.3475 7.58495C17.2274 7.21912 17.0788 6.85614 16.9044 6.51318C16.8615 6.42458 16.8615 6.32455 16.9072 6.24452L17.3504 5.49285C17.5391 5.17275 17.4876 4.76405 17.2246 4.49825L15.5035 2.77771C15.2405 2.51477 14.8316 2.46046 14.5086 2.65195L13.7567 3.09495C13.6795 3.14068 13.5766 3.14068 13.4879 3.09781C13.1449 2.92347 12.7846 2.77485 12.4158 2.65481C12.3215 2.62337 12.25 2.55192 12.2271 2.46046L12.0098 1.61448C11.9155 1.25437 11.5896 1 11.2179 1H8.78494C8.41042 1 8.08736 1.25151 7.99301 1.61448L7.77573 2.46046C7.75286 2.54906 7.68138 2.62337 7.58704 2.65195C7.21537 2.77485 6.85515 2.92347 6.51207 3.09781C6.42344 3.14068 6.32338 3.14068 6.24333 3.09495L5.49142 2.65195C5.17122 2.46332 4.76239 2.51477 4.49651 2.77771L2.77541 4.49825C2.51239 4.76119 2.45807 5.1699 2.64962 5.49285L3.09276 6.24452C3.1385 6.32455 3.1385 6.42458 3.09562 6.51318C2.92122 6.85614 2.77255 7.21626 2.65248 7.58495C2.62103 7.67926 2.54956 7.75071 2.46093 7.77358L1.61468 7.99079C1.25445 8.08511 1 8.41092 1 8.78247V11.2147C1 11.5891 1.25159 11.912 1.61468 12.0064L2.46093 12.2236C2.54956 12.2464 2.62389 12.3179 2.65534 12.4122C2.77255 12.7809 2.92122 13.1439 3.09562 13.4868C3.1385 13.5754 3.1385 13.6755 3.09276 13.7555L2.64962 14.5071C2.46093 14.8272 2.51239 15.2359 2.77541 15.5017L4.49651 17.2223C4.75953 17.4852 5.16836 17.5367 5.49142 17.348L6.24333 16.905C6.32338 16.8565 6.42344 16.8565 6.51207 16.9022C6.85515 17.0765 7.21823 17.2252 7.58418 17.3452C7.67853 17.3766 7.75 17.4481 7.77287 17.5395L7.99015 18.3855C8.0845 18.7456 8.41042 19 8.78208 19H11.2151C11.5867 19 11.9126 18.7485 12.007 18.3855L12.2243 17.5395C12.2471 17.4509 12.3186 17.3766 12.413 17.348C12.7789 17.228 13.142 17.0794 13.4851 16.905C13.5737 16.8593 13.6738 16.8622 13.7538 16.9079L14.5057 17.3509C14.8288 17.5395 15.2348 17.4881 15.5006 17.2252L17.2217 15.5046C17.4848 15.2417 17.5362 14.833 17.3475 14.51L16.9044 13.7583C16.8615 13.6755 16.8615 13.5754 16.9044 13.4868C17.0788 13.1439 17.2274 12.7837 17.3475 12.4151C17.379 12.3207 17.4504 12.2493 17.5391 12.2264L18.3853 12.0092C18.7456 11.9149 19 11.5891 19 11.2175V8.78533C19 8.41092 18.7484 8.08511 18.3882 7.99079ZM18.4568 11.2175C18.4568 11.3433 18.3739 11.4519 18.251 11.4805L17.4047 11.6977C17.1331 11.7691 16.9187 11.9721 16.83 12.2436C16.7186 12.5837 16.5785 12.9209 16.4184 13.2382C16.2897 13.4925 16.2954 13.7898 16.4384 14.0299L16.8815 14.7815C16.9444 14.8873 16.9273 15.0245 16.8386 15.1131L15.1175 16.8336C15.0289 16.9222 14.8945 16.9393 14.7859 16.8765L14.034 16.4335C13.7938 16.2906 13.4965 16.2849 13.2421 16.4135C12.9219 16.5764 12.5874 16.7136 12.2471 16.825C11.9755 16.9136 11.7697 17.128 11.7011 17.3995L11.4838 18.2455C11.4523 18.3655 11.3437 18.4513 11.2208 18.4513H8.7878C8.66201 18.4513 8.55337 18.3684 8.52478 18.2455L8.3075 17.3995C8.23888 17.128 8.03304 16.9136 7.76144 16.825C7.42122 16.7136 7.08672 16.5735 6.76652 16.4135C6.64644 16.3506 6.51493 16.322 6.38628 16.322C6.24333 16.322 6.10038 16.3592 5.97459 16.4335L5.22268 16.8765C5.11404 16.9393 4.97967 16.9222 4.89104 16.8336L3.16137 15.1159C3.07274 15.0273 3.05559 14.893 3.11849 14.7844L3.56163 14.0327C3.70457 13.7926 3.71029 13.4954 3.58164 13.241C3.41868 12.9209 3.28145 12.5865 3.16995 12.2464C3.08132 11.9721 2.86404 11.7691 2.5953 11.6977L1.74905 11.4805C1.62897 11.449 1.5432 11.3404 1.5432 11.2175V8.78533C1.5432 8.65957 1.62611 8.55383 1.74905 8.52239L2.5953 8.30518C2.8669 8.23372 3.08132 8.0308 3.16995 7.75929C3.28145 7.41918 3.42154 7.08479 3.58164 6.76469C3.71029 6.51032 3.70457 6.21308 3.56163 5.97301L3.11849 5.22134C3.05559 5.11559 3.07274 4.97841 3.16137 4.88981L4.88246 3.16926C4.97109 3.08066 5.10832 3.06351 5.2141 3.12639L5.96601 3.56939C6.20616 3.71229 6.50349 3.71801 6.75794 3.58939C7.07814 3.42934 7.41264 3.2893 7.75286 3.17783C8.02446 3.08923 8.2303 2.87488 8.29892 2.60337L8.5162 1.75738C8.54765 1.63735 8.65629 1.5516 8.77922 1.5516H11.2122C11.338 1.5516 11.4438 1.63449 11.4752 1.75738L11.6925 2.60337C11.7611 2.87488 11.967 3.08923 12.2386 3.17783C12.5788 3.2893 12.9161 3.42934 13.2335 3.58939C13.4879 3.71801 13.7853 3.70943 14.0254 3.56939L14.7773 3.12639C14.8831 3.06351 15.0203 3.08066 15.109 3.16926L16.83 4.88981C16.9187 4.97841 16.9358 5.11273 16.8729 5.22134L16.4298 5.97301C16.2868 6.21308 16.2811 6.51032 16.4098 6.76469C16.5727 7.08479 16.71 7.41918 16.8215 7.75929C16.9101 8.0308 17.1245 8.23658 17.3961 8.30518L18.2424 8.52239C18.3625 8.55383 18.4482 8.66243 18.4482 8.78533V11.2175H18.4568Z" fill="#A6ACB8" stroke="#A6ACB8" stroke-width="0.7"/>
</g>
</svg>
