<svg width="18" height="15" viewBox="0 0 18 15" fill="none" xmlns="http://www.w3.org/2000/svg">
<g id="noun-photo-6197316 1" clip-path="url(#clip0_4590_17388)">
<g id="Vector">
<path d="M0.75 2.8125C0.4395 2.8125 0.1875 2.56087 0.1875 2.25C0.1875 1.11262 1.113 0.1875 2.25 0.1875C2.5605 0.1875 2.8125 0.439125 2.8125 0.75C2.8125 1.06087 2.5605 1.3125 2.25 1.3125C1.73287 1.3125 1.3125 1.73325 1.3125 2.25C1.3125 2.56087 1.0605 2.8125 0.75 2.8125Z" fill="#A6ACB8"/>
<path d="M15.75 1.3125L2.25 1.3125C1.9395 1.3125 1.6875 1.06087 1.6875 0.75C1.6875 0.439125 1.9395 0.1875 2.25 0.1875H15.75C16.0605 0.1875 16.3125 0.439125 16.3125 0.75C16.3125 1.06087 16.0605 1.3125 15.75 1.3125Z" fill="#A6ACB8"/>
<path d="M17.25 2.8125C16.9395 2.8125 16.6875 2.56087 16.6875 2.25C16.6875 1.73325 16.2671 1.3125 15.75 1.3125C15.4395 1.3125 15.1875 1.06087 15.1875 0.75C15.1875 0.439125 15.4395 0.1875 15.75 0.1875C16.887 0.1875 17.8125 1.11262 17.8125 2.25C17.8125 2.56087 17.5605 2.8125 17.25 2.8125Z" fill="#A6ACB8"/>
<path d="M15.75 14.8125C15.4395 14.8125 15.1875 14.5609 15.1875 14.25C15.1875 13.9391 15.4395 13.6875 15.75 13.6875C16.2671 13.6875 16.6875 13.2667 16.6875 12.75C16.6875 12.4391 16.9395 12.1875 17.25 12.1875C17.5605 12.1875 17.8125 12.4391 17.8125 12.75C17.8125 13.8874 16.887 14.8125 15.75 14.8125Z" fill="#A6ACB8"/>
<path d="M15.75 14.8125H2.25C1.9395 14.8125 1.6875 14.5609 1.6875 14.25C1.6875 13.9391 1.9395 13.6875 2.25 13.6875H15.75C16.0605 13.6875 16.3125 13.9391 16.3125 14.25C16.3125 14.5609 16.0605 14.8125 15.75 14.8125Z" fill="#A6ACB8"/>
<path d="M2.25 14.8125C1.113 14.8125 0.1875 13.8874 0.1875 12.75C0.1875 12.4391 0.4395 12.1875 0.75 12.1875C1.0605 12.1875 1.3125 12.4391 1.3125 12.75C1.3125 13.2667 1.73287 13.6875 2.25 13.6875C2.5605 13.6875 2.8125 13.9391 2.8125 14.25C2.8125 14.5609 2.5605 14.8125 2.25 14.8125Z" fill="#A6ACB8"/>
<path d="M0.75 13.3125C0.4395 13.3125 0.1875 13.0609 0.1875 12.75V2.25C0.1875 1.93912 0.4395 1.6875 0.75 1.6875C1.0605 1.6875 1.3125 1.93912 1.3125 2.25V12.75C1.3125 13.0609 1.0605 13.3125 0.75 13.3125Z" fill="#A6ACB8"/>
<path d="M17.25 13.3125C16.9395 13.3125 16.6875 13.0609 16.6875 12.75V2.25C16.6875 1.93912 16.9395 1.6875 17.25 1.6875C17.5605 1.6875 17.8125 1.93912 17.8125 2.25V12.75C17.8125 13.0609 17.5605 13.3125 17.25 13.3125Z" fill="#A6ACB8"/>
<path d="M0.1875 2.25C0.1875 2.56087 0.4395 2.8125 0.75 2.8125C1.0605 2.8125 1.3125 2.56087 1.3125 2.25M0.1875 2.25C0.1875 1.11262 1.113 0.1875 2.25 0.1875M0.1875 2.25V12.75M0.1875 2.25C0.1875 1.93912 0.4395 1.6875 0.75 1.6875C1.0605 1.6875 1.3125 1.93912 1.3125 2.25M2.25 0.1875C2.5605 0.1875 2.8125 0.439125 2.8125 0.75C2.8125 1.06087 2.5605 1.3125 2.25 1.3125M2.25 0.1875C1.9395 0.1875 1.6875 0.439125 1.6875 0.75C1.6875 1.06087 1.9395 1.3125 2.25 1.3125M2.25 0.1875H15.75M2.25 1.3125C1.73287 1.3125 1.3125 1.73325 1.3125 2.25M2.25 1.3125L15.75 1.3125M1.3125 2.25V12.75M15.75 1.3125C16.0605 1.3125 16.3125 1.06087 16.3125 0.75C16.3125 0.439125 16.0605 0.1875 15.75 0.1875M15.75 1.3125C16.2671 1.3125 16.6875 1.73325 16.6875 2.25M15.75 1.3125C15.4395 1.3125 15.1875 1.06087 15.1875 0.75C15.1875 0.439125 15.4395 0.1875 15.75 0.1875M15.75 0.1875C16.887 0.1875 17.8125 1.11262 17.8125 2.25M16.6875 2.25C16.6875 2.56087 16.9395 2.8125 17.25 2.8125C17.5605 2.8125 17.8125 2.56087 17.8125 2.25M16.6875 2.25V12.75M16.6875 2.25C16.6875 1.93912 16.9395 1.6875 17.25 1.6875C17.5605 1.6875 17.8125 1.93912 17.8125 2.25M17.8125 2.25V12.75M15.75 14.8125C15.4395 14.8125 15.1875 14.5609 15.1875 14.25C15.1875 13.9391 15.4395 13.6875 15.75 13.6875M15.75 14.8125C16.887 14.8125 17.8125 13.8874 17.8125 12.75M15.75 14.8125H2.25M15.75 14.8125C16.0605 14.8125 16.3125 14.5609 16.3125 14.25C16.3125 13.9391 16.0605 13.6875 15.75 13.6875M15.75 13.6875C16.2671 13.6875 16.6875 13.2667 16.6875 12.75M15.75 13.6875H2.25M16.6875 12.75C16.6875 12.4391 16.9395 12.1875 17.25 12.1875C17.5605 12.1875 17.8125 12.4391 17.8125 12.75M16.6875 12.75C16.6875 13.0609 16.9395 13.3125 17.25 13.3125C17.5605 13.3125 17.8125 13.0609 17.8125 12.75M2.25 14.8125C1.9395 14.8125 1.6875 14.5609 1.6875 14.25C1.6875 13.9391 1.9395 13.6875 2.25 13.6875M2.25 14.8125C1.113 14.8125 0.1875 13.8874 0.1875 12.75M2.25 14.8125C2.5605 14.8125 2.8125 14.5609 2.8125 14.25C2.8125 13.9391 2.5605 13.6875 2.25 13.6875M2.25 13.6875C1.73287 13.6875 1.3125 13.2667 1.3125 12.75M0.1875 12.75C0.1875 12.4391 0.4395 12.1875 0.75 12.1875C1.0605 12.1875 1.3125 12.4391 1.3125 12.75M0.1875 12.75C0.1875 13.0609 0.4395 13.3125 0.75 13.3125C1.0605 13.3125 1.3125 13.0609 1.3125 12.75" stroke="#A6ACB8" stroke-width="0.4"/>
</g>
<path id="Vector_2" d="M6.15357 9.01499C6.05607 9.01499 5.95782 8.98986 5.86744 8.93699C5.23932 8.56574 4.45894 8.56611 3.83157 8.93699C3.56344 9.09524 3.21882 9.00674 3.06094 8.73899C2.90269 8.47161 2.99119 8.12661 3.25857 7.96836C4.24032 7.38861 5.45869 7.38899 6.43969 7.96836C6.70707 8.12661 6.79557 8.47124 6.63732 8.73899C6.53344 8.91599 6.34594 9.01499 6.15357 9.01499Z" fill="#A6ACB8"/>
<path id="Vector_3" d="M0.75052 10.6679C0.558145 10.6679 0.371019 10.5693 0.266019 10.3919C0.107769 10.1246 0.19627 9.77957 0.463645 9.62132L3.25927 7.96832C3.52777 7.81082 3.87164 7.89857 4.02989 8.16595C4.18814 8.43332 4.09964 8.77832 3.83227 8.93657L1.03664 10.5896C0.94627 10.6424 0.84802 10.6679 0.75052 10.6679Z" fill="#A6ACB8"/>
<path id="Vector_4" d="M13.7671 8.60888C13.6696 8.60888 13.5713 8.58375 13.481 8.5305C12.6556 8.04225 11.6296 8.04188 10.8042 8.5305C10.5372 8.68838 10.1922 8.60025 10.0336 8.33288C9.87535 8.0655 9.96385 7.7205 10.2312 7.56225C11.4106 6.8655 12.8742 6.86513 14.0532 7.56225C14.3206 7.72013 14.4091 8.06513 14.2508 8.33288C14.1466 8.50988 13.9595 8.60888 13.7671 8.60888Z" fill="#A6ACB8"/>
<path id="Vector_5" d="M17.25 10.6679C17.1525 10.6679 17.0542 10.6428 16.9638 10.5895L13.4812 8.53041C13.2138 8.37253 13.1253 8.02753 13.2836 7.75978C13.4422 7.49278 13.7865 7.40428 14.0542 7.56216L17.5368 9.62128C17.8042 9.77916 17.8927 10.1242 17.7345 10.3919C17.6295 10.5693 17.4423 10.6679 17.25 10.6679Z" fill="#A6ACB8"/>
<path id="Vector_6" d="M10.2404 11.4316C10.1429 11.4316 10.0447 11.4065 9.95432 11.3532L5.86794 8.93674C5.60057 8.77886 5.51207 8.43386 5.67032 8.16611C5.82894 7.89874 6.17319 7.81061 6.44094 7.96849L10.5273 10.385C10.7947 10.5429 10.8832 10.8879 10.7249 11.1556C10.6196 11.333 10.4324 11.4316 10.2404 11.4316Z" fill="#A6ACB8"/>
<path id="Vector_7" d="M7.99271 10.1019C7.80033 10.1019 7.61321 10.0032 7.50821 9.82586C7.34996 9.55849 7.43846 9.21349 7.70583 9.05524L10.2311 7.56199C10.4996 7.40449 10.8435 7.49261 11.0017 7.75961C11.16 8.02699 11.0715 8.37199 10.8041 8.53024L8.27883 10.0235C8.18883 10.0767 8.09021 10.1019 7.99271 10.1019Z" fill="#A6ACB8"/>
<path id="Vector_8" d="M9 6.5625C7.863 6.5625 6.9375 5.63737 6.9375 4.5C6.9375 3.36262 7.863 2.4375 9 2.4375C10.137 2.4375 11.0625 3.36262 11.0625 4.5C11.0625 5.63737 10.137 6.5625 9 6.5625ZM9 3.5625C8.49187 3.5625 8.0625 3.99187 8.0625 4.5C8.0625 5.00812 8.49187 5.4375 9 5.4375C9.50813 5.4375 9.9375 5.00812 9.9375 4.5C9.9375 3.99187 9.50813 3.5625 9 3.5625Z" fill="#A6ACB8"/>
</g>
<defs>
<clipPath id="clip0_4590_17388">
<rect width="18" height="15" fill="white"/>
</clipPath>
</defs>
</svg>
