<svg width="20" height="20" viewBox="0 0 20 20" fill="none" xmlns="http://www.w3.org/2000/svg">
<g id="noun-maintenance-5723877 1">
<path id="Vector" d="M18.2521 8.02293L17.4196 7.80918C17.3324 7.78668 17.2593 7.71637 17.2284 7.62355C17.1102 7.26355 16.964 6.90637 16.7924 6.56887C16.7502 6.48168 16.7502 6.38324 16.7952 6.30449L17.2312 5.5648C17.4168 5.2498 17.3662 4.84762 17.1074 4.58605L15.4143 2.89293C15.1555 2.63418 14.7534 2.58074 14.4355 2.76918L13.6959 3.20512C13.6199 3.25012 13.5187 3.25012 13.4315 3.20793C13.094 3.03637 12.7396 2.89012 12.3768 2.77199C12.284 2.74105 12.2137 2.67074 12.1912 2.58074L11.9774 1.74824C11.8846 1.39387 11.564 1.14355 11.1984 1.14355H8.80492C8.43648 1.14355 8.11867 1.39105 8.02586 1.74824L7.81211 2.58074C7.78961 2.66793 7.7193 2.74105 7.62648 2.76918C7.26086 2.89012 6.90648 3.03637 6.56898 3.20793C6.4818 3.25012 6.38336 3.25012 6.30461 3.20512L5.56492 2.76918C5.24992 2.58355 4.84773 2.63418 4.58617 2.89293L2.89305 4.58605C2.6343 4.8448 2.58086 5.24699 2.7693 5.5648L3.20523 6.30449C3.25023 6.38324 3.25023 6.48168 3.20805 6.56887C3.03648 6.90637 2.89023 7.26074 2.77211 7.62355C2.74117 7.71637 2.67086 7.78668 2.58367 7.80918L1.75117 8.02293C1.3968 8.11574 1.14648 8.43637 1.14648 8.80199V11.1954C1.14648 11.5639 1.39398 11.8817 1.75117 11.9745L2.58367 12.1882C2.67086 12.2107 2.74398 12.2811 2.77492 12.3739C2.89023 12.7367 3.03648 13.0939 3.20805 13.4314C3.25023 13.5186 3.25023 13.617 3.20523 13.6957L2.7693 14.4354C2.58367 14.7504 2.6343 15.1526 2.89305 15.4142L4.58617 17.1073C4.84492 17.3661 5.24711 17.4167 5.56492 17.2311L6.30461 16.7951C6.38336 16.7473 6.4818 16.7473 6.56898 16.7923C6.90648 16.9639 7.26367 17.1101 7.62367 17.2282C7.71648 17.2592 7.7868 17.3295 7.8093 17.4195L8.02305 18.252C8.11586 18.6064 8.43648 18.8567 8.80211 18.8567H11.1955C11.5612 18.8567 11.8818 18.6092 11.9746 18.252L12.1884 17.4195C12.2109 17.3323 12.2812 17.2592 12.374 17.2311C12.734 17.1129 13.0912 16.9667 13.4287 16.7951C13.5159 16.7501 13.6143 16.7529 13.693 16.7979L14.4327 17.2339C14.7505 17.4195 15.1499 17.3689 15.4115 17.1101L17.1046 15.417C17.3634 15.1582 17.414 14.7561 17.2284 14.4382L16.7924 13.6986C16.7502 13.617 16.7502 13.5186 16.7924 13.4314C16.964 13.0939 17.1102 12.7395 17.2284 12.3767C17.2593 12.2839 17.3296 12.2136 17.4168 12.1911L18.2493 11.9773C18.6037 11.8845 18.854 11.5639 18.854 11.1982V8.8048C18.854 8.43637 18.6065 8.11574 18.2521 8.02293ZM18.3196 11.1982C18.3196 11.322 18.238 11.4289 18.1171 11.457L17.2846 11.6707C17.0174 11.7411 16.8065 11.9407 16.7193 12.2079C16.6096 12.5426 16.4718 12.8745 16.3143 13.1867C16.1877 13.437 16.1934 13.7295 16.334 13.9657L16.7699 14.7054C16.8318 14.8095 16.8149 14.9445 16.7277 15.0317L15.0346 16.7248C14.9474 16.812 14.8152 16.8289 14.7084 16.767L13.9687 16.3311C13.7324 16.1904 13.4399 16.1848 13.1896 16.3114C12.8746 16.4717 12.5455 16.6067 12.2109 16.7164C11.9437 16.8036 11.7412 17.0145 11.6737 17.2817L11.4599 18.1142C11.429 18.2323 11.3221 18.3167 11.2012 18.3167H8.80773C8.68398 18.3167 8.57711 18.2351 8.54898 18.1142L8.33523 17.2817C8.26773 17.0145 8.06523 16.8036 7.79805 16.7164C7.46336 16.6067 7.1343 16.4689 6.8193 16.3114C6.70117 16.2495 6.5718 16.2214 6.44523 16.2214C6.30461 16.2214 6.16398 16.2579 6.04023 16.3311L5.30055 16.767C5.19367 16.8289 5.06148 16.812 4.9743 16.7248L3.27273 15.0345C3.18555 14.9473 3.16867 14.8151 3.23055 14.7082L3.66648 13.9686C3.80711 13.7323 3.81273 13.4398 3.68617 13.1895C3.52586 12.8745 3.39086 12.5454 3.28117 12.2107C3.19398 11.9407 2.98023 11.7411 2.71586 11.6707L1.88336 11.457C1.76523 11.4261 1.68086 11.3192 1.68086 11.1982V8.8048C1.68086 8.68105 1.76242 8.57699 1.88336 8.54605L2.71586 8.3323C2.98305 8.26199 3.19398 8.0623 3.28117 7.79512C3.39086 7.46043 3.52867 7.13137 3.68617 6.81637C3.81273 6.56605 3.80711 6.27355 3.66648 6.0373L3.23055 5.29762C3.16867 5.19355 3.18555 5.05855 3.27273 4.97137L4.96586 3.27824C5.05305 3.19105 5.18805 3.17418 5.29211 3.23605L6.0318 3.67199C6.26805 3.81262 6.56055 3.81824 6.81086 3.69168C7.12586 3.53418 7.45492 3.39637 7.78961 3.28668C8.0568 3.19949 8.2593 2.98855 8.3268 2.72137L8.54055 1.88887C8.57148 1.77074 8.67836 1.68637 8.7993 1.68637H11.1927C11.3165 1.68637 11.4205 1.76793 11.4515 1.88887L11.6652 2.72137C11.7327 2.98855 11.9352 3.19949 12.2024 3.28668C12.5371 3.39637 12.869 3.53418 13.1812 3.69168C13.4315 3.81824 13.724 3.8098 13.9602 3.67199L14.6999 3.23605C14.804 3.17418 14.939 3.19105 15.0262 3.27824L16.7193 4.97137C16.8065 5.05855 16.8234 5.19074 16.7615 5.29762L16.3255 6.0373C16.1849 6.27355 16.1793 6.56605 16.3059 6.81637C16.4662 7.13137 16.6012 7.46043 16.7109 7.79512C16.798 8.0623 17.009 8.2648 17.2762 8.3323L18.1087 8.54605C18.2268 8.57699 18.3112 8.68387 18.3112 8.8048V11.1982H18.3196Z" fill="#A6ACB8" stroke="#A6ACB8" stroke-width="0.7"/>
<path id="Vector_2" d="M14.8112 7.21269C14.7924 7.15779 14.7614 7.10788 14.7205 7.06675C14.6423 6.9897 14.5369 6.94652 14.4271 6.94652C14.3173 6.94652 14.212 6.9897 14.1338 7.06675L12.9149 8.30887C12.8365 8.37885 12.7445 8.43192 12.6447 8.46477C12.5449 8.49762 12.4394 8.50955 12.3348 8.49982C12.2302 8.49008 12.1287 8.45888 12.0366 8.40818C11.9446 8.35747 11.864 8.28833 11.7998 8.20508C11.4206 7.8224 11.4206 7.36512 11.6929 7.09269L12.9149 5.85706C12.9912 5.7784 13.0338 5.67313 13.0338 5.56356C13.0338 5.45399 12.9912 5.34872 12.9149 5.27006C12.8735 5.22946 12.8237 5.19846 12.7691 5.17925C12.1963 4.98241 11.5804 4.9469 10.9889 5.07661C10.3973 5.20632 9.85274 5.49624 9.41474 5.9147C8.97675 6.33315 8.66217 6.86402 8.5054 7.44928C8.34863 8.03453 8.3557 8.65165 8.52584 9.23316V9.24937L5.8483 11.2731C5.77699 11.3282 5.70892 11.3801 5.64084 11.4385C5.43885 11.6241 5.27759 11.8497 5.16727 12.1009C5.05696 12.3521 5 12.6235 5 12.8979C5 13.1723 5.05696 13.4437 5.16727 13.6949C5.27759 13.9461 5.43885 14.1717 5.64084 14.3573C5.8261 14.5598 6.05147 14.7216 6.3026 14.8322C6.55374 14.9429 6.82514 15 7.09955 15C7.37396 15 7.64536 14.9429 7.8965 14.8322C8.14763 14.7216 8.37299 14.5598 8.55825 14.3573L8.58095 14.3313C8.82406 14.0297 10.7528 11.4806 10.7528 11.4806C10.7528 11.4806 10.7528 11.4806 10.769 11.4806C11.3522 11.6522 11.9715 11.6593 12.5584 11.5011C13.1454 11.3429 13.6773 11.0256 14.0954 10.5841C14.5136 10.1426 14.8017 9.5942 14.928 8.99928C15.0543 8.40436 15.0139 7.78609 14.8112 7.21269ZM13.4401 10.0504C13.1272 10.3629 12.7364 10.5858 12.3082 10.6958C11.8801 10.8059 11.4303 10.7992 11.0056 10.6763L10.4384 10.5174L7.94884 13.7897C7.59227 14.2665 6.84346 14.4189 6.21136 13.7897C5.57925 13.1606 5.72512 12.4601 6.15949 12.0871L9.4821 9.55098L9.32326 9.00289C9.21307 8.62811 9.19314 8.23254 9.2651 7.84857C9.33706 7.46459 9.49887 7.10312 9.73728 6.79373C9.9757 6.48434 10.2839 6.23582 10.6368 6.06851C10.9897 5.9012 11.3771 5.81985 11.7674 5.83112L11.0932 6.50569C10.9401 6.65536 10.8209 6.83619 10.7437 7.03594C10.6665 7.23569 10.6332 7.4497 10.6458 7.66348C10.6812 8.09288 10.8726 8.49441 11.1839 8.79209C11.3258 8.95183 11.4982 9.0815 11.6909 9.17345C11.8837 9.26539 12.093 9.31775 12.3063 9.32743C12.5196 9.3371 12.7328 9.3039 12.9331 9.22977C13.1334 9.15565 13.3168 9.04211 13.4725 8.89587L14.15 8.21806C14.1624 8.55573 14.1059 8.89239 13.9838 9.20746C13.8617 9.52252 13.6767 9.80936 13.4401 10.0504Z" fill="#A6ACB8" stroke="#A6ACB8" stroke-width="0.5"/>
</g>
</svg>
