<svg width="17" height="20" viewBox="0 0 17 20" fill="none" xmlns="http://www.w3.org/2000/svg">
<g id="noun-information-1582625 1" clip-path="url(#clip0_4590_41011)">
<g id="Group">
<path id="Vector" d="M1.45028 4.24991L8.32458 1.06698C8.54972 0.970945 8.78987 0.984664 8.98499 1.06698L15.9193 4.26363C16.0844 4.35966 16.3096 4.5929 16.3096 4.86729V11.6584C16.3096 13.3322 15.5441 14.7453 14.1932 15.9664C12.9174 17.1188 11.1163 18.0929 8.93996 18.9435C8.75985 19.0121 8.54972 19.0121 8.36961 18.9435C6.20826 18.0929 4.39212 17.1188 3.11632 15.9664C1.76548 14.7453 1 13.3322 1 11.6584V4.86729C1 4.57918 1.18011 4.34594 1.45028 4.24991ZM6.83865 13.1264H7.93433V9.12033H6.83865V7.78954H8.65478C9.06004 7.78954 9.39024 8.09137 9.39024 8.44808V13.1264H10.4859V14.4572H6.83865V13.1264ZM8.65478 4.9496C9.25516 4.9496 9.75047 5.40235 9.75047 5.95113C9.75047 6.51363 9.25516 6.95265 8.65478 6.95265C8.05441 6.95265 7.5591 6.51363 7.5591 5.95113C7.5591 5.40235 8.05441 4.9496 8.65478 4.9496ZM8.65478 2.41149L2.45591 5.26515V11.6584C2.45591 12.9481 3.07129 14.0456 4.13696 15.0197C5.23265 16.0075 6.77861 16.8581 8.65478 17.599C10.531 16.8581 12.0919 16.0075 13.1726 15.0197C14.2383 14.0456 14.8537 12.9481 14.8537 11.6584V5.26515L8.65478 2.41149Z" fill="#A6ACB8" stroke="#A6ACB8" stroke-width="0.4"/>
</g>
</g>
<defs>
<clipPath id="clip0_4590_41011">
<rect width="17" height="20" fill="white"/>
</clipPath>
</defs>
</svg>
