<svg width="20" height="20" viewBox="0 0 20 20" fill="none" xmlns="http://www.w3.org/2000/svg">
<g id="noun-more-2012703 1" clip-path="url(#clip0_4590_7762)">
<path id="Vector" d="M10.0009 19.79C11.9372 19.79 13.83 19.2158 15.44 18.1401C17.0499 17.0643 18.3047 15.5353 19.0457 13.7464C19.7867 11.9575 19.9806 9.9891 19.6028 8.09003C19.2251 6.19096 18.2927 4.44655 16.9235 3.07739C15.5544 1.70823 13.8099 0.775827 11.9109 0.398078C10.0118 0.0203282 8.04335 0.214203 6.25447 0.955185C4.46558 1.69617 2.93659 2.95097 1.86085 4.56093C0.785111 6.17089 0.210938 8.06369 0.210938 9.99997C0.213585 12.5956 1.24588 15.0842 3.08129 16.9196C4.91669 18.755 7.40528 19.7873 10.0009 19.79ZM10.0009 1.70996C11.6405 1.70996 13.2433 2.19616 14.6066 3.10708C15.9699 4.018 17.0324 5.31272 17.6599 6.82752C18.2874 8.34232 18.4515 10.0092 18.1316 11.6173C17.8118 13.2254 17.0222 14.7025 15.8629 15.8619C14.7035 17.0213 13.2263 17.8108 11.6182 18.1307C10.0101 18.4505 8.34329 18.2864 6.82849 17.6589C5.31369 17.0315 4.01897 15.9689 3.10805 14.6056C2.19714 13.2424 1.71094 11.6396 1.71094 9.99997C1.71358 7.80213 2.58784 5.69508 4.14195 4.14097C5.69605 2.58687 7.80311 1.71261 10.0009 1.70996Z" fill="#A6ACB8"/>
<path id="Vector_2" d="M10.0009 11.2549C10.6885 11.2549 11.2459 10.6975 11.2459 10.0099C11.2459 9.3223 10.6885 8.76489 10.0009 8.76489C9.31327 8.76489 8.75586 9.3223 8.75586 10.0099C8.75586 10.6975 9.31327 11.2549 10.0009 11.2549Z" fill="#A6ACB8"/>
<path id="Vector_3" d="M14.0009 11.2549C14.6885 11.2549 15.2459 10.6975 15.2459 10.0099C15.2459 9.3223 14.6885 8.76489 14.0009 8.76489C13.3133 8.76489 12.7559 9.3223 12.7559 10.0099C12.7559 10.6975 13.3133 11.2549 14.0009 11.2549Z" fill="#A6ACB8"/>
<path id="Vector_4" d="M6.00086 11.2549C6.68845 11.2549 7.24586 10.6975 7.24586 10.0099C7.24586 9.3223 6.68845 8.76489 6.00086 8.76489C5.31327 8.76489 4.75586 9.3223 4.75586 10.0099C4.75586 10.6975 5.31327 11.2549 6.00086 11.2549Z" fill="#A6ACB8"/>
</g>
<defs>
<clipPath id="clip0_4590_7762">
<rect width="20" height="20" fill="white"/>
</clipPath>
</defs>
</svg>
